Coordinates
version=1
nRows=13
nColumns=40
inDegrees=yes

Units are S.I. units (second, meters, Newtons, ...)
If the header above contains a line with 'inDegrees', this indicates whether rotational values are in degrees (yes) or radians (no).

endheader
time	pelvis_tilt	pelvis_list	pelvis_rotation	pelvis_tx	pelvis_ty	pelvis_tz	hip_flexion_r	hip_adduction_r	hip_rotation_r	knee_angle_r	knee_angle_r_beta	ankle_angle_r	subtalar_angle_r	mtp_angle_r	hip_flexion_l	hip_adduction_l	hip_rotation_l	knee_angle_l	knee_angle_l_beta	ankle_angle_l	subtalar_angle_l	mtp_angle_l	lumbar_extension	lumbar_bending	lumbar_rotation	arm_flex_r	arm_add_r	arm_rot_r	elbow_flex_r	pro_sup_r	wrist_flex_r	wrist_dev_r	arm_flex_l	arm_add_l	arm_rot_l	elbow_flex_l	pro_sup_l	wrist_flex_l	wrist_dev_l
      5.30000000	    -24.15455671	      1.38493318	      2.44593216	     -0.33500102	      0.85016383	     -1.04374750	     32.86611982	     -8.24251760	     -8.63136250	    102.13053785	      1.78251415	    -17.79349759	      0.00000000	      0.00000000	     63.87493720	      4.37256275	     -6.28965372	     70.87685580	      1.23703450	     21.26454187	      0.00000000	      0.00000000	     -3.47785176	     -2.63842460	     -0.59054032	     89.78163460	    -18.62560900	     25.75966969	     51.78609989	     85.93669701	      0.00000000	      0.00000000	     89.91976520	    -22.40101148	     28.42904223	     52.95508642	     85.30253752	      0.00000000	      0.00000000
      5.30500000	    -24.08385972	      1.32112395	      2.39806500	     -0.33483873	      0.85205946	     -1.04360962	     32.89917304	     -8.20163062	     -8.66653705	    102.18758023	      1.78350973	    -17.81355434	      0.00000000	      0.00000000	     63.59777174	      4.31176166	     -6.21734531	     70.49130150	      1.23030531	     21.13279548	      0.00000000	      0.00000000	     -3.46927036	     -2.57017034	     -0.56004317	     89.77673232	    -18.63558801	     25.89002650	     51.74006974	     85.93509957	      0.00000000	      0.00000000	     89.91911987	    -22.41378411	     28.51351845	     52.95628921	     85.29285429	      0.00000000	      0.00000000
      5.31000000	    -23.97539190	      1.27964637	      2.36679531	     -0.33468542	      0.85404085	     -1.04347598	     32.90135813	     -8.16331926	     -8.71387823	    102.18441857	      1.78345455	    -17.82444741	      0.00000000	      0.00000000	     63.27361761	      4.27737799	     -6.15629368	     70.10378591	      1.22354188	     20.97734622	      0.00000000	      0.00000000	     -3.49467559	     -2.50634930	     -0.51886767	     89.76903671	    -18.68740254	     26.01893582	     51.70734129	     85.92093796	      0.00000000	      0.00000000	     89.91867623	    -22.47141053	     28.67992770	     52.95228796	     85.28836863	      0.00000000	      0.00000000
      5.31500000	    -23.86042821	      1.23803528	      2.34892636	     -0.33448004	      0.85607044	     -1.04332539	     32.85929869	     -8.16118356	     -8.78054045	    102.16927974	      1.78319033	    -17.82731965	      0.00000000	      0.00000000	     62.94244965	      4.24893716	     -6.08934945	     69.71780799	      1.21680530	     20.80239612	      0.00000000	      0.00000000	     -3.52802452	     -2.46131824	     -0.46810683	     89.76841458	    -18.73195418	     26.19230040	     51.60575271	     85.91647201	      0.00000000	      0.00000000	     89.91770624	    -22.48039007	     28.87315880	     52.94269638	     85.28345613	      0.00000000	      0.00000000
      5.32000000	    -23.77966610	      1.17291641	      2.31887660	     -0.33428709	      0.85788729	     -1.04313497	     32.86739199	     -8.11100374	     -8.85028667	    102.21851974	      1.78404973	    -17.81615954	      0.00000000	      0.00000000	     62.68675596	      4.18925996	     -6.01481731	     69.40955240	      1.21142522	     20.67160868	      0.00000000	      0.00000000	     -3.50809715	     -2.38479682	     -0.44196761	     89.76123337	    -18.77481082	     26.25892323	     51.59177566	     85.90418256	      0.00000000	      0.00000000	     89.91669590	    -22.52758763	     28.97665720	     52.92832139	     85.27836114	      0.00000000	      0.00000000
      5.32500000	    -23.67836400	      1.10591342	      2.31219018	     -0.33410741	      0.85987735	     -1.04298151	     32.85262404	     -8.08327871	     -8.93167037	    102.24133353	      1.78444790	    -17.80240739	      0.00000000	      0.00000000	     62.36418836	      4.14564607	     -5.93146550	     69.00156000	      1.20430441	     20.48587315	      0.00000000	      0.00000000	     -3.52606044	     -2.31521918	     -0.43157560	     89.74953153	    -18.81231001	     26.38089010	     51.54114919	     85.89451670	      0.00000000	      0.00000000	     89.91645305	    -22.55277726	     29.12060915	     52.93681008	     85.27540789	      0.00000000	      0.00000000
      5.33000000	    -23.60695790	      1.03100262	      2.29415615	     -0.33396228	      0.86176693	     -1.04274065	     32.84971107	     -8.00066496	     -8.98501920	    102.21586736	      1.78400343	    -17.79017011	      0.00000000	      0.00000000	     62.08836409	      4.09621662	     -5.83048520	     68.61270173	      1.19751755	     20.31538176	      0.00000000	      0.00000000	     -3.51406761	     -2.24540869	     -0.40776083	     89.74716428	    -18.83379709	     26.54636376	     51.48582312	     85.88573464	      0.00000000	      0.00000000	     89.91598372	    -22.59436346	     29.28285675	     52.93725718	     85.26851017	      0.00000000	      0.00000000
      5.33500000	    -23.41570384	      0.98404361	      2.30856553	     -0.33350449	      0.86386057	     -1.04275164	     32.67245590	     -8.02739010	     -9.09532932	    102.17211212	      1.78323976	    -17.78462273	      0.00000000	      0.00000000	     61.66616181	      4.11327780	     -5.71199383	     68.24804081	      1.19115302	     20.10220989	      0.00000000	      0.00000000	     -3.59958406	     -2.18638133	     -0.42917332	     89.74462526	    -18.93306360	     26.84403058	     51.42100010	     85.84654969	      0.00000000	      0.00000000	     89.91540290	    -22.68724197	     29.62151395	     52.95594321	     85.24965092	      0.00000000	      0.00000000
      5.34000000	    -23.39819894	      0.87561399	      2.28726712	     -0.33358742	      0.86563223	     -1.04249124	     32.77254231	     -7.94862731	     -9.20718078	    102.23381218	      1.78431663	    -17.78477760	      0.00000000	      0.00000000	     61.48284254	      4.00047256	     -5.64361943	     67.92227794	      1.18546739	     19.99244151	      0.00000000	      0.00000000	     -3.55525543	     -2.08137922	     -0.42042303	     89.73981753	    -18.92903760	     26.86713573	     51.42534965	     85.83499762	      0.00000000	      0.00000000	     89.91499352	    -22.71459414	     29.63785774	     52.96599526	     85.23840394	      0.00000000	      0.00000000
      5.34500000	    -23.31594860	      0.80186381	      2.27622384	     -0.33340266	      0.86762810	     -1.04237968	     32.75207519	     -7.87018803	     -9.24145715	    102.20841820	      1.78387342	    -17.75974754	      0.00000000	      0.00000000	     61.17906625	      3.96590781	     -5.54707846	     67.47872063	      1.17772585	     19.78668471	      0.00000000	      0.00000000	     -3.54533747	     -1.98624597	     -0.39663575	     89.72995399	    -18.96676751	     26.99246662	     51.35316906	     85.82159701	      0.00000000	      0.00000000	     89.91373862	    -22.74172863	     29.78604656	     52.95057883	     85.23065767	      0.00000000	      0.00000000
      5.35000000	    -23.02763895	      1.00230818	      2.10731805	     -0.33257391	      0.86993363	     -1.04213760	     32.49622969	     -8.04478632	     -9.05910319	    102.16379244	      1.78309455	    -17.75772508	      0.00000000	      0.00000000	     60.55926792	      3.94780270	     -5.77299094	     67.02984830	      1.16989155	     19.60811745	      0.00000000	      0.00000000	     -3.73822543	     -2.20882573	     -0.28094349	     89.72442755	    -18.98470284	     27.27621300	     51.24199412	     85.79512651	      0.00000000	      0.00000000	     89.91306775	    -22.84892444	     30.09311839	     52.95370409	     85.20928838	      0.00000000	      0.00000000
      5.35500000	    -23.03370557	      0.82903200	      2.21444464	     -0.33287034	      0.87160204	     -1.04207249	     32.61248512	     -7.98084643	     -9.30638458	    102.24932531	      1.78458738	    -17.75250922	      0.00000000	      0.00000000	     60.42916150	      3.89545818	     -5.64826359	     66.69517623	      1.16405042	     19.49736743	      0.00000000	      0.00000000	     -3.67035850	     -2.02705894	     -0.35153485	     89.71912721	    -19.03331441	     27.27468551	     51.24891082	     85.77881556	      0.00000000	      0.00000000	     89.91260047	    -22.82142882	     30.12056008	     52.97048188	     85.19801640	      0.00000000	      0.00000000
      5.36000000	    -23.03168067	      0.71682196	      2.21508595	     -0.33273823	      0.87341083	     -1.04184000	     32.67837528	     -7.88343771	     -9.40721964	    102.24177068	      1.78445553	    -17.75407139	      0.00000000	      0.00000000	     60.21476444	      3.83117347	     -5.49763565	     66.27956192	      1.15679658	     19.31988525	      0.00000000	      0.00000000	     -3.57909710	     -1.91657137	     -0.33654439	     89.70707391	    -19.05489283	     27.38305739	     51.20380584	     85.77656984	      0.00000000	      0.00000000	     89.91160009	    -22.84347421	     30.24127694	     52.96749881	     85.19286548	      0.00000000	      0.00000000
